<svg id="Layer_1" data-name="Layer 1" xmlns="http://www.w3.org/2000/svg" viewBox="0 0 230.57 77.84"><defs><style>.cls-1{fill:#fff;}.cls-2{fill:#deb137;}.cls-3{isolation:isolate;}</style></defs><title>logo</title><path class="cls-1" d="M39.3,3.35a0.93,0.93,0,0,1,1,1L39.23,15.14a1.21,1.21,0,0,1-1.14,1H27.49V51.45a1,1,0,0,1-1,1H13.89a1.08,1.08,0,0,1-1.07-1V16.14H1a1,1,0,0,1-1-1V4.42A1.08,1.08,0,0,1,1,3.35H39.3Z"/><path class="cls-1" d="M58.46,3.35a1,1,0,0,1,1.07,1.07V51.48a1,1,0,0,1-1,1H45.86a1.07,1.07,0,0,1-1-1V4.42a1.08,1.08,0,0,1,1-1.07h12.6Z"/><path class="cls-1" d="M99.75,39.66a1,1,0,0,1,1.07.93h0V51.48a1.08,1.08,0,0,1-1.07,1H66.65a1.45,1.45,0,0,1-1.14-1.07V4.35a0.9,0.9,0,0,1,.79-1H98.9a1.1,1.1,0,0,1,1.14,1V15.14a1.07,1.07,0,0,1-1.14,1H80.32v5.62H95.41a0.85,0.85,0,0,1,.93.93l-1,10a1.25,1.25,0,0,1-1.21.93H80.32v6.05H99.75Z"/><path class="cls-1" d="M146.46,51.34a0.76,0.76,0,0,1-.78,1.14H130.44a1.87,1.87,0,0,1-1.64-1.14l-7.4-15.52h-0.85V51.48a1.1,1.1,0,0,1-1.14,1H106.87a1.08,1.08,0,0,1-1.07-1V4.42a1.09,1.09,0,0,1,1.07-1.07h18.8c11,0,18.23,6.41,18.23,16.09A15,15,0,0,1,135.09,33ZM124.74,23.71c2.42,0,4.06-1.5,4.06-3.77a3.73,3.73,0,0,0-4.06-3.8h-4.2v7.55h4.2v0Z"/><path class="cls-2" d="M152.73,0V77.84h77.84V0H152.73Zm25,51.41a1,1,0,0,1-.93,1.07H164.18a1,1,0,0,1-1.07-1.07V16.31H158.2a0.81,0.81,0,0,1-.93-0.85V6.7a1.11,1.11,0,0,1,1.14-1.07l18.37-2.85a0.75,0.75,0,0,1,1,.71V51.41Z"/><g class="cls-3"><g class="cls-3"><path class="cls-1" d="M52.49,77.53a3.6,3.6,0,0,1-2.82-1.08,4.73,4.73,0,0,1-1.09-3l2-.49q0.15,2.93,2,2.93A1.3,1.3,0,0,0,54,74.46a2.65,2.65,0,0,0-.12-0.81A2.15,2.15,0,0,0,53.47,73a4.72,4.72,0,0,0-.44-0.5q-0.2-.19-0.54-0.46l-2.44-2A3.82,3.82,0,0,1,49,68.71a4.13,4.13,0,0,1-.4-1.85,3.16,3.16,0,0,1,.94-2.41A3.47,3.47,0,0,1,52,63.56a4,4,0,0,1,2.65.81,3.57,3.57,0,0,1,1.21,2.3c0,0.11,0,.25.05,0.44l-2,.49c0-.09,0-0.22,0-0.39a3,3,0,0,0-.58-1.49A1.61,1.61,0,0,0,52,65.17a1.45,1.45,0,0,0-1.08.39,1.5,1.5,0,0,0-.38,1.1,2.38,2.38,0,0,0,1,1.93l2.44,2a4.73,4.73,0,0,1,2,3.78A3,3,0,0,1,55,76.68,3.55,3.55,0,0,1,52.49,77.53Z"/></g><g class="cls-3"><path class="cls-1" d="M58.79,77.39V65.44H56.35V63.7h6.85v1.74H60.75V77.39h-2Z"/></g><g class="cls-3"><path class="cls-1" d="M67.59,77.53a4.51,4.51,0,0,1-1.77-.31,2.73,2.73,0,0,1-1.17-.92A4,4,0,0,1,64,74.88a8,8,0,0,1-.2-1.89V68a7.87,7.87,0,0,1,.2-1.88,3.92,3.92,0,0,1,.63-1.39,2.64,2.64,0,0,1,1.17-.89,4.7,4.7,0,0,1,1.77-.3,3.43,3.43,0,0,1,2.89,1.15A5.33,5.33,0,0,1,71.36,68v5a7.82,7.82,0,0,1-.2,1.88,4.12,4.12,0,0,1-.64,1.42,2.73,2.73,0,0,1-1.17.92A4.45,4.45,0,0,1,67.59,77.53ZM66.16,75.3a1.95,1.95,0,0,0,2.85,0,3.44,3.44,0,0,0,.39-1.83V67.54A3.26,3.26,0,0,0,69,65.76a2,2,0,0,0-2.86,0,3.26,3.26,0,0,0-.39,1.78v5.94A3.44,3.44,0,0,0,66.16,75.3Z"/><path class="cls-1" d="M73.07,77.39V63.7h1.47L78,72.16V63.7h2V77.39H78.53L75,68.28v9.11h-2Z"/><path class="cls-1" d="M81.87,77.39V63.7h5.38v1.47H83.83v4.4h2.44V71H83.83v4.89h3.42v1.47H81.87Z"/></g></g><g class="cls-3"><path class="cls-1" d="M91.93,77.39L94.87,63.7h2l2.93,13.69h-2L97.07,74H94.62l-0.73,3.42h-2Zm2.93-4.89h2l-1-5.87Z"/><path class="cls-1" d="M100.85,77.39V63.7h1.47l3.42,8.46V63.7h2V77.39h-1.39l-3.5-9.11v9.11h-2Z"/><path class="cls-1" d="M109.66,77.39V63.7h3a4.22,4.22,0,0,1,3,.88,4.21,4.21,0,0,1,.88,3V73a5.11,5.11,0,0,1-.9,3.33,3.75,3.75,0,0,1-3,1.07h-3Zm2-1.47h1.08a3.37,3.37,0,0,0,.83-0.09,1.11,1.11,0,0,0,.56-0.32,2.62,2.62,0,0,0,.34-0.44,1.75,1.75,0,0,0,.17-0.65q0-.44.06-0.73t0-.89V68.1c0-.25,0-0.45,0-0.6s0-.32,0-0.52a3.36,3.36,0,0,0-.06-0.48c0-.12-0.06-0.25-0.11-0.39a1,1,0,0,0-.17-0.34,2.67,2.67,0,0,0-.25-0.26,1,1,0,0,0-.34-0.2,3,3,0,0,0-.45-0.11,3.74,3.74,0,0,0-.58,0h-1V75.92Z"/></g><g class="cls-3"><path class="cls-1" d="M124.18,77.39V65.44h-2.45V63.7h6.85v1.74h-2.45V77.39h-2Z"/><path class="cls-1" d="M129.64,77.39V63.7h2V77.39h-2Z"/><path class="cls-1" d="M133.69,77.39V63.7h2V75.92h3.42v1.47h-5.38Z"/><path class="cls-1" d="M140,77.39V63.7h5.38v1.47h-3.42v4.4h2.44V71h-2.44v4.89h3.42v1.47H140Z"/></g></svg>